<svg xmlns="http://www.w3.org/2000/svg" xmlns:xlink="http://www.w3.org/1999/xlink" width="2000" zoomAndPan="magnify" viewBox="0 0 1500 1499.999933" height="2000" preserveAspectRatio="xMidYMid meet" version="1.0"><defs><clipPath id="46836e4817"><path d="M 150 150 L 1350 150 L 1350 1346 L 150 1346 Z M 150 150 " clip-rule="nonzero"/></clipPath><clipPath id="45da88aa62"><path d="M 481 372 L 1029 372 L 1029 1350 L 481 1350 Z M 481 372 " clip-rule="nonzero"/></clipPath></defs><g clip-path="url(#46836e4817)"><path fill="#000000" d="M 1350.160156 750.109375 C 1350.160156 418.652344 1081.507812 150 750.109375 150 C 418.707031 150 150 418.652344 150 750.109375 C 150 1031.527344 343.734375 1267.703125 605.117188 1332.550781 L 605.117188 933.5 L 481.347656 933.5 L 481.347656 750.109375 L 605.117188 750.109375 L 605.117188 671.09375 C 605.117188 466.859375 697.539062 372.171875 898.0625 372.171875 C 936.085938 372.171875 1001.6875 379.605469 1028.507812 387.089844 L 1028.507812 553.304688 C 1014.34375 551.796875 989.730469 551.042969 959.191406 551.042969 C 860.789062 551.042969 822.765625 588.3125 822.765625 685.207031 L 822.765625 750.054688 L 1018.761719 750.054688 L 985.097656 933.445312 L 822.765625 933.445312 L 822.765625 1345.746094 C 1119.910156 1309.875 1350.160156 1056.839844 1350.160156 750.054688 Z M 1350.160156 750.109375 " fill-opacity="1" fill-rule="nonzero"/></g><g clip-path="url(#45da88aa62)"><path fill="#ffffff" d="M 985.152344 933.445312 L 1018.816406 750.054688 L 822.820312 750.054688 L 822.820312 685.207031 C 822.820312 588.3125 860.84375 551.042969 959.246094 551.042969 C 989.785156 551.042969 1014.398438 551.796875 1028.5625 553.304688 L 1028.5625 387.089844 C 1001.742188 379.660156 936.140625 372.171875 898.113281 372.171875 C 697.59375 372.171875 605.171875 466.859375 605.171875 671.09375 L 605.171875 750.109375 L 481.398438 750.109375 L 481.398438 933.5 L 605.171875 933.5 L 605.171875 1332.550781 C 651.597656 1344.074219 700.125 1350.214844 750.160156 1350.214844 C 774.777344 1350.214844 799.011719 1348.707031 822.871094 1345.796875 L 822.871094 933.5 L 985.207031 933.5 Z M 985.152344 933.445312 " fill-opacity="1" fill-rule="nonzero"/></g></svg>