<svg xmlns="http://www.w3.org/2000/svg" xmlns:xlink="http://www.w3.org/1999/xlink" width="2000" zoomAndPan="magnify" viewBox="0 0 1500 1499.999933" height="2000" preserveAspectRatio="xMidYMid meet" version="1.0"><defs><clipPath id="257cc1bbd9"><path d="M 150 150 L 1350 150 L 1350 1350 L 150 1350 Z M 150 150 " clip-rule="nonzero"/></clipPath></defs><g clip-path="url(#257cc1bbd9)"><path fill="#000000" d="M 750.199219 149.800781 C 1081.597656 149.800781 1350.199219 418.441406 1350.199219 749.800781 C 1350.199219 1002.695312 1193.722656 1219.03125 972.28125 1307.335938 L 963.523438 1118.277344 L 963.523438 1117.914062 C 964.007812 1080.511719 979.796875 1051.0625 1014.828125 1036.242188 L 1019.328125 1034.433594 L 1019.566406 1034.351562 L 1019.847656 1034.230469 L 1020.292969 1034.070312 C 1046.082031 1023.625 1067.09375 1009.566406 1081.394531 985.21875 C 1099.273438 954.886719 1102.726562 914.472656 1102.726562 880.082031 C 1102.726562 813.957031 1083.242188 735.898438 1049.660156 678.730469 C 1025.796875 638.113281 988.152344 597.015625 937.332031 597.015625 C 886.511719 597.015625 848.867188 638.113281 825.003906 678.730469 C 791.417969 735.898438 771.933594 813.957031 771.933594 880.082031 C 771.933594 914.511719 775.390625 954.929688 793.265625 985.21875 C 807.730469 1009.726562 828.980469 1023.828125 854.894531 1034.273438 C 855.617188 1034.554688 856.339844 1034.875 857.0625 1035.15625 L 857.265625 1035.15625 L 859.515625 1036.121094 C 894.667969 1050.902344 910.65625 1080.03125 911.136719 1117.914062 L 911.136719 1118.277344 L 901.296875 1330.636719 C 853.007812 1343.171875 802.386719 1349.839844 750.199219 1349.839844 C 696.167969 1349.839844 643.820312 1342.648438 594.003906 1329.269531 L 584.804688 1130.449219 L 584.804688 1130.007812 C 585.285156 1091.679688 601.636719 1061.46875 637.511719 1046.285156 L 642.09375 1044.476562 L 642.253906 1044.4375 L 642.414062 1044.355469 L 642.9375 1044.15625 C 668.246094 1033.910156 688.894531 1020.128906 702.957031 996.226562 C 720.59375 966.296875 723.96875 926.164062 723.96875 892.214844 C 723.96875 888.921875 723.847656 885.628906 723.644531 882.332031 C 723.523438 880.445312 723.363281 878.558594 723.125 876.710938 L 722.800781 873.9375 L 723.324219 872.050781 L 701.507812 618.269531 L 678.691406 618.308594 L 676.722656 886.511719 L 638.71875 890.289062 L 616.140625 587.132812 L 591.390625 588.621094 L 586.492188 894.023438 L 573.03125 894.585938 C 570.222656 894.707031 567.410156 894.746094 564.636719 894.746094 C 561.824219 894.746094 558.972656 894.707031 556.160156 894.585938 L 542.78125 894.023438 L 535.910156 588.621094 L 511.164062 587.175781 L 490.554688 890.328125 L 452.511719 886.550781 L 450.582031 618.308594 L 427.644531 618.308594 L 398.15625 872.167969 L 398.636719 873.976562 L 398.316406 876.667969 C 398.113281 878.558594 397.953125 880.445312 397.832031 882.332031 C 397.632812 885.628906 397.511719 888.921875 397.511719 892.214844 C 397.511719 926.164062 400.886719 966.296875 418.523438 996.226562 C 432.703125 1020.332031 453.59375 1034.113281 479.066406 1044.355469 C 479.667969 1044.597656 480.269531 1044.839844 480.832031 1045.078125 L 481.035156 1045.078125 L 483.6875 1046.203125 C 519.640625 1061.347656 536.152344 1091.238281 536.675781 1130.007812 L 536.675781 1130.449219 L 528.480469 1307.617188 C 306.757812 1219.476562 150.039062 1002.976562 150.039062 749.839844 C 150.199219 418.402344 418.804688 149.800781 750.199219 149.800781 " fill-opacity="1" fill-rule="evenodd"/></g></svg>